<?xml version="1.0" encoding="UTF-8" standalone="no"?>
<!-- Created with Inkscape (http://www.inkscape.org/) -->

<svg
   width="500"
   height="500"
   viewBox="0 0 166.66666 166.66667"
   version="1.1"
   id="svg5"
   inkscape:export-filename="bitmap.svg"
   inkscape:export-xdpi="1"
   inkscape:export-ydpi="1"
   xmlns:inkscape="http://www.inkscape.org/namespaces/inkscape"
   xmlns:sodipodi="http://sodipodi.sourceforge.net/DTD/sodipodi-0.dtd"
   xmlns="http://www.w3.org/2000/svg"
   xmlns:svg="http://www.w3.org/2000/svg">
  <sodipodi:namedview
     id="namedview7"
     pagecolor="#ffffff"
     bordercolor="#999999"
     borderopacity="1"
     inkscape:showpageshadow="0"
     inkscape:pageopacity="0"
     inkscape:pagecheckerboard="0"
     inkscape:deskcolor="#d1d1d1"
     inkscape:document-units="px"
     showgrid="false"
     inkscape:zoom="0.43067173"
     inkscape:cx="464.39082"
     inkscape:cy="488.77134"
     inkscape:window-width="1320"
     inkscape:window-height="704"
     inkscape:window-x="0"
     inkscape:window-y="0"
     inkscape:window-maximized="1"
     inkscape:current-layer="layer1" />
  <defs
     id="defs2">
    <filter
       inkscape:collect="always"
       style="color-interpolation-filters:sRGB"
       id="filter950"
       x="-1.4713008"
       y="-0.64896441"
       width="3.9426014"
       height="2.2979288">
      <feGaussianBlur
         inkscape:collect="always"
         stdDeviation="26.395261"
         id="feGaussianBlur952" />
    </filter>
    <filter
       inkscape:collect="always"
       style="color-interpolation-filters:sRGB"
       id="filter1579"
       x="-0.39972395"
       y="-0.25347409"
       width="1.7994479"
       height="1.5069482">
      <feGaussianBlur
         inkscape:collect="always"
         stdDeviation="6.9696152"
         id="feGaussianBlur1581" />
    </filter>
    <filter
       inkscape:collect="always"
       style="color-interpolation-filters:sRGB"
       id="filter1579-6"
       x="-0.39972395"
       y="-0.25347409"
       width="1.7994479"
       height="1.5069482">
      <feGaussianBlur
         inkscape:collect="always"
         stdDeviation="6.9696152"
         id="feGaussianBlur1581-2" />
    </filter>
  </defs>
  <g
     inkscape:label="Layer 1"
     inkscape:groupmode="layer"
     id="layer1">
    <path
       style="opacity:0.474978;mix-blend-mode:normal;fill:#fb6500;fill-opacity:1;stroke-width:0.354605;filter:url(#filter950)"
       id="path163"
       sodipodi:type="arc"
       sodipodi:cx="218.58194"
       sodipodi:cy="86.023369"
       sodipodi:rx="21.528103"
       sodipodi:ry="48.807476"
       sodipodi:start="0"
       sodipodi:end="6.2684896"
       sodipodi:open="true"
       sodipodi:arc-type="arc"
       d="M 240.11004,86.023369 A 21.528103,48.807476 0 0 1 218.66103,134.83052 21.528103,48.807476 0 0 1 197.05442,86.381996 21.528103,48.807476 0 0 1 218.34467,37.218857 21.528103,48.807476 0 0 1 240.10772,85.306134"
       transform="matrix(0.15359774,-0.24337703,0.14071155,0.59819868,-0.88553954,61.244902)" />
    <path
       style="opacity:0.39038;mix-blend-mode:normal;fill:#ffbb8e;fill-opacity:1;stroke-width:0.333333;filter:url(#filter1579)"
       id="path1577"
       sodipodi:type="arc"
       sodipodi:cx="84.374023"
       sodipodi:cy="86.06057"
       sodipodi:rx="20.923285"
       sodipodi:ry="32.995632"
       sodipodi:start="0"
       sodipodi:end="6.2684896"
       sodipodi:open="true"
       sodipodi:arc-type="arc"
       d="M 105.29731,86.06057 A 20.923285,32.995632 0 0 1 84.450894,119.05598 20.923285,32.995632 0 0 1 63.451304,86.303015 20.923285,32.995632 0 0 1 84.143416,53.066942 20.923285,32.995632 0 0 1 105.29505,85.575693"
       transform="matrix(0.56914245,-0.37848231,0.33647085,0.9172323,9.0600618,8.4740096)" />
    <path
       style="opacity:0.39038;mix-blend-mode:normal;fill:#b4aaff;fill-opacity:1;stroke-width:0.333333;filter:url(#filter1579-6)"
       id="path1577-9"
       sodipodi:type="arc"
       sodipodi:cx="84.374023"
       sodipodi:cy="86.06057"
       sodipodi:rx="20.923285"
       sodipodi:ry="32.995632"
       sodipodi:start="0"
       sodipodi:end="6.2684896"
       sodipodi:open="true"
       sodipodi:arc-type="arc"
       d="M 105.29731,86.06057 A 20.923285,32.995632 0 0 1 84.450894,119.05598 20.923285,32.995632 0 0 1 63.451304,86.303015 20.923285,32.995632 0 0 1 84.143416,53.066942 20.923285,32.995632 0 0 1 105.29505,85.575693"
       transform="matrix(0.74509985,-0.67519818,0.44049496,1.6363079,22.148171,1.2677727)" />
  </g>
</svg>
