<?xml version="1.0" encoding="UTF-8" standalone="no"?>
<!-- Created with Inkscape (http://www.inkscape.org/) -->

<svg
   width="135.74413mm"
   height="106.04478mm"
   viewBox="0 0 135.74413 106.04478"
   version="1.1"
   id="svg1"
   xmlns:inkscape="http://www.inkscape.org/namespaces/inkscape"
   xmlns:sodipodi="http://sodipodi.sourceforge.net/DTD/sodipodi-0.dtd"
   xmlns="http://www.w3.org/2000/svg"
   xmlns:svg="http://www.w3.org/2000/svg">
  <sodipodi:namedview
     id="namedview1"
     pagecolor="#ffffff"
     bordercolor="#000000"
     borderopacity="0.25"
     inkscape:showpageshadow="2"
     inkscape:pageopacity="0.0"
     inkscape:pagecheckerboard="0"
     inkscape:deskcolor="#d1d1d1"
     inkscape:document-units="mm" />
  <defs
     id="defs1" />
  <g
     inkscape:label="Layer 1"
     inkscape:groupmode="layer"
     id="layer1"
     transform="translate(-33.256646,-78.301962)">
    <g
       id="g3"
       transform="translate(9.4774427,16.169541)"
       inkscape:export-filename="g3.png"
       inkscape:export-xdpi="96"
       inkscape:export-ydpi="96">
      <path
         fill="currentColor"
         d="m 66.211597,102.79252 c 10.73051,0.0288 19.44386,-9.081713 19.44386,-20.330018 0,-11.248306 -8.71335,-20.358784 -19.44386,-20.330014 -10.69176,0.02867 -19.34465,9.122322 -19.34465,20.330014 0,11.207691 8.65289,20.301348 19.34465,20.330018 m -21.3812,8.76372 c -10.13779,0.002 -16.68305,10.62847 -17.86794,21.18259 l -3.15157,28.05551 c -0.56702,5.04672 6.65734,5.94188 7.22436,0.89516 l 3.15157,-28.05551 c 0.59086,-5.28906 4.12664,-9.70272 8.99411,-11.2272 l 7.681332,22.407 c 1.481711,4.32226 -6.761961,6.52251 -6.374021,9.54148 0.40719,3.19185 -2.914739,9.67577 -0.703849,11.9884 2.20611,2.31763 8.259768,0.4183 11.304678,0.84514 2.88004,0.40724 6.51647,0.40724 10.87046,0.40724 h 0.50432 c 4.35888,0 7.99046,0 10.87535,-0.40724 3.04003,-0.42645 9.173404,0.70104 11.384354,-1.61717 2.20609,-2.31263 -0.281166,-7.26705 0.130974,-10.4589 0.38795,-3.01897 -10.596015,-6.46 -8.832054,-10.67495 l 9.220004,-22.031 c 4.86791,1.52207 8.40554,5.9337 8.99894,11.22221 l 3.151575,28.05551 c 0.42651,5.22693 7.96068,4.29877 7.21952,-0.8894 l -3.15158,-28.05551 c -1.18489,-10.55412 -6.823905,-21.21556 -16.961685,-21.21746 z"
         id="path1"
         style="fill:#535353;fill-opacity:1;stroke-width:4.96416"
         sodipodi:nodetypes="cssscccccccscccsscccsccccccc" />
      <path
         fill="currentColor"
         d="m 117.07117,103.37367 c 10.7305,0.0288 19.44386,-9.081713 19.44386,-20.330023 0,-11.2483 -8.71336,-20.35878 -19.44386,-20.33001 -10.69176,0.0287 -19.344653,9.12232 -19.344653,20.33001 0,11.20769 8.652893,20.301353 19.344653,20.330023 m -20.453543,3.03644 c -10.137787,0.002 -17.610719,16.35575 -18.795609,26.90987 l -3.15156,28.05551 c -0.56702,5.04672 6.65734,5.94188 7.22436,0.89516 l 3.15156,-28.05551 c 0.59086,-5.28906 4.126639,-9.70272 8.994109,-11.2272 l 2.00329,21.23551 c 0.42913,4.54898 0.80686,8.75834 1.19481,11.77731 0.40719,3.19185 0.80873,4.70707 3.019623,7.0197 2.20611,2.31763 2.64551,4.32266 5.69042,4.7495 2.88004,0.40724 6.51647,0.40724 10.87047,0.40724 h 0.50432 c 4.35887,0 7.99045,0 10.87534,-0.40724 3.04004,-0.42645 4.14691,-2.38087 6.35786,-4.69908 2.20609,-2.31263 1.34706,-3.97075 1.7592,-7.1626 0.38795,-3.01897 0.38436,-7.16524 0.98268,-11.69507 l 2.80355,-21.22527 c 4.86791,1.52207 8.40554,5.9337 8.99894,11.22221 l 3.15157,28.05551 c 0.42651,5.22693 7.96068,4.29877 7.21952,-0.8894 l -3.15158,-28.05551 c -1.18489,-10.55412 -7.23,-26.73717 -17.36778,-26.73907 z"
         id="path1-1"
         style="stroke-width:4.96416"
         sodipodi:nodetypes="cssscccccccscccsscccsccccccc" />
    </g>
  </g>
</svg>
